<?xml version="1.0" encoding="utf-8"?>
<!-- Generator: Adobe Illustrator 27.0.0, SVG Export Plug-In . SVG Version: 6.00 Build 0)  -->
<svg version="1.1" id="Capa_2_00000024691217429155498050000007829201270487019446_"
	 xmlns="http://www.w3.org/2000/svg" xmlns:xlink="http://www.w3.org/1999/xlink" x="0px" y="0px" viewBox="0 0 67.5 69.7"
	 style="enable-background:new 0 0 67.5 69.7;" xml:space="preserve">
<style type="text/css">
	.st0{fill:#63FFDA;}
</style>
<g id="Capa_1-2">
	<g>
		<path class="st0" d="M63.1,16.9c-3-5.2-7-9.3-12.1-12.3C45.9,1.5,40.2,0,33.8,0S21.7,1.5,16.7,4.5c-5.1,3-9.1,7.1-12.1,12.3
			C1.5,22.1,0,28.1,0,35s1.5,12.8,4.5,18s7.1,9.3,12.1,12.3c5.1,3,10.8,4.4,17.2,4.4s12.1-1.5,17.2-4.4c5.1-3,9.1-7.1,12.1-12.3
			s4.4-11.2,4.4-18S66,22.1,63.1,16.9L63.1,16.9z M52,46.9c-1.9,3.5-4.4,6.2-7.6,8.1c-3.2,2-6.7,2.9-10.6,2.9s-7.5-1-10.7-2.9
			c-3.2-2-5.8-4.7-7.6-8.1c-1.9-3.5-2.8-7.5-2.8-12s0.9-8.7,2.8-12.1c1.9-3.4,4.4-6.1,7.6-8.1s6.8-2.9,10.7-2.9s7.4,1,10.6,2.9
			c3.2,2,5.7,4.6,7.6,8.1s2.8,7.5,2.8,12.1S53.9,43.4,52,46.9z"/>
		<path class="st0" d="M40,23.8c-1.8-1.1-3.9-1.6-6.2-1.6s-4.4,0.5-6.2,1.6c-1.9,1.1-3.3,2.6-4.4,4.5c-1.1,1.9-1.6,4.1-1.6,6.6
			s0.5,4.7,1.6,6.5c1.1,1.9,2.6,3.4,4.4,4.5s3.9,1.6,6.2,1.6s4.4-0.5,6.2-1.6c1.8-1.1,3.3-2.6,4.4-4.5s1.6-4.1,1.6-6.5
			s-0.5-4.7-1.6-6.6C43.3,26.4,41.9,24.9,40,23.8z"/>
	</g>
</g>
</svg>
