<?xml version="1.0" encoding="UTF-8"?>
<svg id="Capa_2" data-name="Capa 2" xmlns="http://www.w3.org/2000/svg" viewBox="0 0 133.49 119.51">
  <defs>
    <style>
      .cls-1 {
        fill: #0a192e;
      }
    </style>
  </defs>
  <g id="Capa_1-2" data-name="Capa 1">
    <g>
      <path class="cls-1" d="M16.27,18.82c1.61,0,2.88-.36,3.81-1.08,.93-.72,1.82-1.72,2.67-2.99,.76-1.69,1.91-3.01,3.43-3.94,1.53-.93,3.43-1.4,5.72-1.4s4.07,.47,5.59,1.4c1.53,.93,2.71,2.25,3.56,3.94,.85,1.27,1.74,2.27,2.67,2.99,.93,.72,2.16,1.08,3.69,1.08,1.44,0,2.54-.53,3.31-1.59,.76-1.06,.76-2.44,0-4.13-.76-2.63-2.03-4.94-3.81-6.93-1.78-1.99-3.94-3.52-6.48-4.58-2.54-1.06-5.38-1.59-8.52-1.59s-6,.55-8.58,1.65c-2.59,1.1-4.77,2.63-6.55,4.58-1.78,1.95-3.09,4.28-3.94,6.99-.68,1.7-.62,3.05,.19,4.07,.8,1.02,1.89,1.53,3.24,1.53Z"/>
      <path class="cls-1" d="M53.46,35.03c-2.92-2.92-6.25-5.21-9.98-6.87-3.73-1.65-7.67-2.48-11.82-2.48-5.42,0-10.55,1.42-15.38,4.26-4.83,2.84-8.75,6.91-11.76,12.2C1.5,47.44,0,53.82,0,61.28c0,6.61,1.42,12.48,4.26,17.61,2.84,5.13,6.84,9.15,12.01,12.08,5.17,2.92,11.27,4.39,18.31,4.39,4.41,0,8.62-.85,12.65-2.54,4.02-1.69,7.18-3.64,9.47-5.85,1.86-1.53,2.8-3.22,2.8-5.08,0-1.44-.51-2.69-1.53-3.75-1.02-1.06-2.33-1.59-3.94-1.59-1.19,0-2.42,.38-3.69,1.14-1.02,.85-2.23,1.74-3.62,2.67-1.4,.93-3.09,1.72-5.08,2.35-1.99,.64-4.56,.95-7.69,.95-3.98,0-7.63-.95-10.93-2.86s-5.93-4.6-7.88-8.07c-1.44-2.56-2.34-5.44-2.72-8.65H56.58c1.69,0,3.18-.55,4.45-1.65,1.27-1.1,1.95-2.5,2.03-4.2-.09-4.66-.98-8.96-2.67-12.9-1.7-3.94-4-7.37-6.93-10.3Zm-35.34,7.56c1.82-1.78,3.9-3.07,6.23-3.88,2.33-.8,4.77-1.21,7.31-1.21,2.88,0,5.61,.64,8.2,1.91,2.58,1.27,4.77,3.01,6.55,5.21,1.78,2.21,2.8,4.79,3.05,7.76v.89H12.82c.25-1.31,.57-2.52,.98-3.62,1.06-2.92,2.5-5.28,4.32-7.06Z"/>
      <path class="cls-1" d="M131.71,28.54c-1.19-1.23-2.71-1.84-4.58-1.84s-3.39,.62-4.58,1.84c-1.19,1.23-1.78,2.78-1.78,4.64v34.33c0,3.22-.68,6.04-2.03,8.46-1.36,2.42-3.22,4.3-5.6,5.66-2.37,1.36-5.17,2.04-8.39,2.04-4.83,0-8.48-1.29-10.93-3.88-2.46-2.58-3.69-6.67-3.69-12.27V33.18c0-1.86-.62-3.41-1.84-4.64-1.23-1.23-2.73-1.84-4.51-1.84s-3.41,.62-4.64,1.84c-1.23,1.23-1.84,2.78-1.84,4.64v37.76c0,4.75,.91,8.96,2.73,12.65,1.82,3.69,4.41,6.57,7.75,8.65,3.35,2.08,7.35,3.12,12.01,3.12,3.64,0,6.95-.51,9.92-1.53,2.96-1.02,5.57-2.46,7.82-4.32,1.27-1.05,2.38-2.26,3.37-3.59v2.31c0,4.58-.76,8.31-2.29,11.19-1.53,2.88-3.71,5-6.55,6.36-2.84,1.36-6.34,2.03-10.49,2.03-3.05,0-5.76-.47-8.14-1.4-2.37-.93-4.28-1.7-5.72-2.29-1.53-.59-3.01-.53-4.45,.19-1.44,.72-2.46,2.1-3.05,4.13-.59,1.61-.47,3.12,.38,4.51,.85,1.4,2.29,2.56,4.32,3.5,1.95,.93,4.45,1.67,7.5,2.23,3.05,.55,6.1,.83,9.15,.83,6.02,0,11.42-1.08,16.21-3.24s8.6-5.57,11.44-10.23c2.84-4.66,4.26-10.72,4.26-18.18V33.18c0-1.86-.6-3.41-1.78-4.64Z"/>
    </g>
  </g>
</svg>