<?xml version="1.0" encoding="utf-8"?>
<!-- Generator: Adobe Illustrator 27.0.0, SVG Export Plug-In . SVG Version: 6.00 Build 0)  -->
<svg version="1.1" id="Capa_2_00000080884781508259989640000002219041914870253446_"
	 xmlns="http://www.w3.org/2000/svg" xmlns:xlink="http://www.w3.org/1999/xlink" x="0px" y="0px" viewBox="0 0 67.5 69.7"
	 style="enable-background:new 0 0 67.5 69.7;" xml:space="preserve">
<style type="text/css">
	.st0{fill:#63FFDA;}
</style>
<g id="Capa_1-2">
	<path class="st0" d="M67.5,35c0,6.8-1.5,12.8-4.5,18c-3,5.2-7,9.3-12.1,12.3c-5.1,3-10.8,4.4-17.2,4.4s-12.1-1.5-17.2-4.4
		c-5.1-3-9.1-7.1-12.1-12.3C1.5,47.7,0,41.8,0,35s1.5-12.9,4.5-18.1c3-5.2,7.1-9.3,12.1-12.3C21.7,1.5,27.5,0,33.8,0
		S45.9,1.5,51,4.5c5.1,3,9.1,7.1,12.1,12.3C66,22,67.5,28.1,67.5,35z M54.8,35c0-4.7-0.9-8.7-2.8-12.1s-4.4-6.1-7.6-8.1
		c-3.2-1.9-6.7-2.9-10.6-2.9s-7.5,1-10.7,2.9c-3.2,2-5.8,4.6-7.6,8.1s-2.8,7.5-2.8,12.1s0.9,8.5,2.8,12c1.9,3.5,4.4,6.2,7.6,8.1
		S29.9,58,33.8,58s7.4-1,10.6-2.9c3.2-2,5.7-4.7,7.6-8.1C53.9,43.4,54.8,39.5,54.8,35z"/>
</g>
</svg>
